<?xml version="1.0" encoding="UTF-8"?>
<svg id="Layer_1" data-name="Layer 1" xmlns="http://www.w3.org/2000/svg" xmlns:xlink="http://www.w3.org/1999/xlink" viewBox="0 0 458.81 175.64">
  <defs>
    <style>
      .cls-1 {
        fill: url(#linear-gradient-12);
      }

      .cls-1, .cls-2, .cls-3, .cls-4, .cls-5, .cls-6, .cls-7, .cls-8, .cls-9, .cls-10, .cls-11, .cls-12, .cls-13, .cls-14, .cls-15, .cls-16, .cls-17, .cls-18, .cls-19, .cls-20, .cls-21, .cls-22, .cls-23, .cls-24, .cls-25, .cls-26, .cls-27, .cls-28, .cls-29, .cls-30, .cls-31, .cls-32, .cls-33, .cls-34, .cls-35, .cls-36, .cls-37, .cls-38, .cls-39, .cls-40, .cls-41, .cls-42, .cls-43, .cls-44, .cls-45, .cls-46, .cls-47 {
        stroke-width: 0px;
      }

      .cls-2 {
        fill: url(#linear-gradient-17);
      }

      .cls-48, .cls-3, .cls-4, .cls-7, .cls-8, .cls-11, .cls-12, .cls-15, .cls-16, .cls-18, .cls-19, .cls-22, .cls-24, .cls-26, .cls-27, .cls-31, .cls-32, .cls-34, .cls-35, .cls-38, .cls-41, .cls-42, .cls-45, .cls-46, .cls-47 {
        fill: #fff;
      }

      .cls-3 {
        clip-path: url(#clippath-45);
      }

      .cls-4 {
        clip-path: url(#clippath-24);
      }

      .cls-5 {
        fill: url(#linear-gradient-19);
      }

      .cls-6 {
        fill: url(#linear-gradient);
      }

      .cls-7 {
        clip-path: url(#clippath-39);
      }

      .cls-49 {
        clip-path: url(#clippath-47);
      }

      .cls-8 {
        clip-path: url(#clippath-35);
      }

      .cls-9 {
        fill: url(#linear-gradient-21);
      }

      .cls-10 {
        fill: url(#linear-gradient-6);
      }

      .cls-11 {
        clip-path: url(#clippath-27);
      }

      .cls-12 {
        clip-path: url(#clippath-40);
      }

      .cls-13 {
        fill: url(#linear-gradient-15);
      }

      .cls-14 {
        fill: url(#linear-gradient-11);
      }

      .cls-15 {
        clip-path: url(#clippath-30);
      }

      .cls-16 {
        clip-path: url(#clippath-36);
      }

      .cls-17 {
        fill: url(#linear-gradient-5);
      }

      .cls-18 {
        clip-path: url(#clippath-46);
      }

      .cls-19 {
        clip-path: url(#clippath-38);
      }

      .cls-20 {
        fill: url(#linear-gradient-13);
      }

      .cls-21 {
        fill: url(#linear-gradient-23);
      }

      .cls-22 {
        clip-path: url(#clippath-41);
      }

      .cls-23 {
        fill: url(#linear-gradient-16);
      }

      .cls-24 {
        clip-path: url(#clippath-42);
      }

      .cls-25 {
        fill: url(#linear-gradient-22);
      }

      .cls-26 {
        clip-path: url(#clippath-28);
      }

      .cls-28 {
        fill: url(#linear-gradient-20);
      }

      .cls-29 {
        fill: url(#linear-gradient-14);
      }

      .cls-30 {
        fill: url(#linear-gradient-2);
      }

      .cls-31 {
        clip-path: url(#clippath-26);
      }

      .cls-32 {
        clip-path: url(#clippath-33);
      }

      .cls-33 {
        fill: url(#linear-gradient-7);
      }

      .cls-34 {
        clip-path: url(#clippath-29);
      }

      .cls-35 {
        clip-path: url(#clippath-34);
      }

      .cls-36 {
        fill: url(#linear-gradient-3);
      }

      .cls-37 {
        fill: url(#linear-gradient-9);
      }

      .cls-38 {
        clip-path: url(#clippath-32);
      }

      .cls-39 {
        fill: url(#linear-gradient-8);
      }

      .cls-40 {
        fill: url(#linear-gradient-18);
      }

      .cls-41 {
        clip-path: url(#clippath-25);
      }

      .cls-42 {
        clip-path: url(#clippath-44);
      }

      .cls-43 {
        fill: url(#linear-gradient-10);
      }

      .cls-44 {
        fill: url(#linear-gradient-4);
      }

      .cls-45 {
        clip-path: url(#clippath-37);
      }

      .cls-46 {
        clip-path: url(#clippath-31);
      }

      .cls-47 {
        clip-path: url(#clippath-43);
      }
    </style>
    <linearGradient id="linear-gradient" x1="85.1" y1="35.46" x2="88.21" y2="10.13" gradientUnits="userSpaceOnUse">
      <stop offset="0" stop-color="#dec386"/>
      <stop offset=".38" stop-color="#d0a96b"/>
      <stop offset="1" stop-color="#a17841"/>
    </linearGradient>
    <linearGradient id="linear-gradient-2" x1="42.04" y1="49.01" x2="44.16" y2="31.72" xlink:href="#linear-gradient"/>
    <linearGradient id="linear-gradient-3" x1="15.04" y1="91.22" x2="33.06" y2="79.07" gradientUnits="userSpaceOnUse">
      <stop offset="0" stop-color="#a17841"/>
      <stop offset=".62" stop-color="#d0a96b"/>
      <stop offset="1" stop-color="#dec386"/>
    </linearGradient>
    <linearGradient id="linear-gradient-4" x1="40.71" y1="140.22" x2="43.24" y2="119.58" xlink:href="#linear-gradient-3"/>
    <linearGradient id="linear-gradient-5" x1="86.75" y1="161.03" x2="89.87" y2="135.67" xlink:href="#linear-gradient-3"/>
    <linearGradient id="linear-gradient-6" x1="130.53" y1="139.43" x2="132.65" y2="122.15" xlink:href="#linear-gradient-3"/>
    <linearGradient id="linear-gradient-7" x1="141.4" y1="92.29" x2="159.3" y2="80.21" xlink:href="#linear-gradient"/>
    <linearGradient id="linear-gradient-8" x1="130.99" y1="51.29" x2="133.51" y2="30.78" xlink:href="#linear-gradient"/>
    <clipPath id="clippath-24">
      <path class="cls-27" d="m101.15,22.05c-.93-.92-1.29-.78-1.94.28-3.24,5.33-6.55,10.62-9.85,15.91-.5.81-1.06,1.53.03,2.31.88.63,1.41,1.77,2.92.87,5.88-3.52,11.85-6.9,18.05-10.48-3.25-3.12-6.27-5.96-9.21-8.89Z"/>
    </clipPath>
    <clipPath id="clippath-25">
      <path class="cls-4" d="m75.81,22.23c-.42-.67-.73-1.31-1.63-.42-3.06,3.03-6.18,6.01-9.41,9.13,6.17,3.57,12.14,6.96,18.04,10.48,1.4.83,1.88-.15,2.67-.82.9-.76,1.08-1.43.37-2.53-3.4-5.24-6.71-10.55-10.04-15.83Z"/>
    </clipPath>
    <clipPath id="clippath-26">
      <path class="cls-41" d="m52.29,30.96c-1.31,0-1.47.36-1.17,1.57,1.48,6.06,2.88,12.14,4.29,18.22.21.93.34,1.83,1.66,1.61,1.07-.18,2.25.26,2.68-1.45,1.67-6.65,3.5-13.26,5.35-20.17-4.5.09-8.65.22-12.8.22Z"/>
    </clipPath>
    <clipPath id="clippath-27">
      <path class="cls-31" d="m34.5,49c-.77-.17-1.44-.41-1.45.86-.02,4.31-.12,8.62-.2,13.11,6.88-1.84,13.51-3.66,20.16-5.35,1.58-.4,1.23-1.44,1.31-2.47.1-1.17-.24-1.78-1.53-2.05-6.11-1.31-12.2-2.72-18.3-4.09Z"/>
    </clipPath>
    <clipPath id="clippath-28">
      <path class="cls-11" d="m69.29,39.91c-.77-.23-.99.28-1.29.8-1.19,2.06-2.41,4.09-3.78,6.42,4.69-.71,8.5-2.28,12.34-5.03-2.63-.79-4.95-1.48-7.26-2.18Z"/>
    </clipPath>
    <clipPath id="clippath-29">
      <path class="cls-26" d="m23.93,72.25c-.92.93-.78,1.29.28,1.94,5.33,3.24,10.62,6.55,15.91,9.85.81.5,1.53,1.06,2.31-.03.63-.88,1.77-1.41.87-2.92-3.52-5.88-6.9-11.85-10.48-18.05-3.12,3.25-5.96,6.27-8.89,9.21Z"/>
    </clipPath>
    <clipPath id="clippath-30">
      <path class="cls-34" d="m24.11,97.58c-.67.42-1.31.73-.42,1.63,3.03,3.06,6.01,6.18,9.13,9.41,3.57-6.17,6.96-12.14,10.48-18.04.83-1.4-.15-1.88-.82-2.67-.76-.9-1.43-1.08-2.53-.37-5.24,3.4-10.55,6.71-15.83,10.04Z"/>
    </clipPath>
    <clipPath id="clippath-31">
      <path class="cls-15" d="m42.28,66.56c-.71.38-.51.9-.35,1.48.61,2.29,1.19,4.6,1.86,7.21,2.81-3.81,4.4-7.62,5.17-12.28-2.42,1.3-4.54,2.45-6.68,3.59Z"/>
    </clipPath>
    <clipPath id="clippath-32">
      <path class="cls-46" d="m32.57,120.71c0,1.31.36,1.47,1.57,1.17,6.06-1.48,12.14-2.88,18.22-4.29.93-.21,1.83-.34,1.61-1.66-.18-1.07.26-2.25-1.45-2.68-6.65-1.67-13.26-3.5-20.17-5.35.09,4.5.22,8.65.22,12.8Z"/>
    </clipPath>
    <clipPath id="clippath-33">
      <path class="cls-38" d="m50.62,138.5c-.17.77-.41,1.44.86,1.45,4.31.02,8.62.12,13.11.2-1.84-6.88-3.66-13.51-5.35-20.16-.4-1.58-1.44-1.23-2.47-1.31-1.17-.1-1.78.24-2.05,1.53-1.31,6.11-2.72,12.2-4.09,18.3Z"/>
    </clipPath>
    <clipPath id="clippath-34">
      <path class="cls-32" d="m41.53,103.72c-.23.77.28.99.8,1.29,2.06,1.19,4.09,2.41,6.42,3.78-.71-4.69-2.28-8.5-5.03-12.34-.79,2.63-1.48,4.95-2.18,7.26Z"/>
    </clipPath>
    <clipPath id="clippath-35">
      <path class="cls-35" d="m101.03,149.07c-.93.92-1.29.78-1.94-.28-3.24-5.33-6.55-10.62-9.85-15.91-.5-.81-1.06-1.53.03-2.31.88-.63,1.41-1.77,2.92-.87,5.88,3.52,11.85,6.9,18.05,10.48-3.25,3.12-6.27,5.96-9.21,8.89Z"/>
    </clipPath>
    <clipPath id="clippath-36">
      <path class="cls-8" d="m75.7,148.89c-.42.67-.73,1.31-1.63.42-3.06-3.03-6.18-6.01-9.41-9.13,6.17-3.57,12.14-6.96,18.04-10.48,1.4-.83,1.88.15,2.67.82.9.76,1.08,1.43.37,2.53-3.4,5.24-6.71,10.55-10.04,15.83Z"/>
    </clipPath>
    <clipPath id="clippath-37">
      <path class="cls-16" d="m67.77,130.72c-1.14-2.14-2.29-4.26-3.59-6.68,4.66.77,8.47,2.35,12.28,5.17-2.61.67-4.92,1.25-7.21,1.86-.58.16-1.1.36-1.48-.35Z"/>
    </clipPath>
    <clipPath id="clippath-38">
      <path class="cls-45" d="m141.72,120.96c0,1.31-.36,1.47-1.57,1.17-6.06-1.48-12.14-2.88-18.22-4.29-.93-.21-1.83-.34-1.61-1.66.18-1.07-.26-2.25,1.45-2.68,6.65-1.67,13.26-3.5,20.17-5.35-.09,4.5-.22,8.65-.22,12.8Z"/>
    </clipPath>
    <clipPath id="clippath-39">
      <path class="cls-19" d="m123.67,138.75c.17.77.41,1.44-.86,1.45-4.31.02-8.62.12-13.11.2,1.84-6.88,3.66-13.51,5.35-20.16.4-1.58,1.44-1.23,2.47-1.31,1.17-.1,1.78.24,2.05,1.53,1.31,6.11,2.72,12.2,4.09,18.3Z"/>
    </clipPath>
    <clipPath id="clippath-40">
      <path class="cls-7" d="m105.22,131.5c-2.31-.71-4.64-1.4-7.26-2.18,3.84-2.76,7.65-4.33,12.34-5.03-1.37,2.32-2.59,4.36-3.78,6.42-.3.52-.53,1.03-1.29.8Z"/>
    </clipPath>
    <clipPath id="clippath-41">
      <path class="cls-12" d="m150.53,71.89c.92.93.78,1.29-.28,1.94-5.33,3.24-10.62,6.55-15.91,9.85-.81.5-1.53,1.06-2.31-.03-.63-.88-1.77-1.41-.87-2.92,3.52-5.88,6.9-11.85,10.48-18.05,3.12,3.25,5.96,6.27,8.89,9.21Z"/>
    </clipPath>
    <clipPath id="clippath-42">
      <path class="cls-22" d="m150.35,97.22c.67.42,1.31.73.42,1.63-3.03,3.06-6.01,6.18-9.13,9.41-3.57-6.17-6.96-12.14-10.48-18.04-.83-1.4.15-1.88.82-2.67.76-.9,1.43-1.08,2.53-.37,5.24,3.4,10.55,6.71,15.83,10.04Z"/>
    </clipPath>
    <clipPath id="clippath-43">
      <path class="cls-24" d="m132.18,105.15c-2.14,1.14-4.26,2.29-6.68,3.59.77-4.66,2.35-8.47,5.17-12.28.67,2.61,1.25,4.92,1.86,7.21.16.58.36,1.1-.35,1.48Z"/>
    </clipPath>
    <clipPath id="clippath-44">
      <path class="cls-47" d="m122.41,30.91c1.31,0,1.47.36,1.17,1.57-1.48,6.06-2.88,12.14-4.29,18.22-.21.93-.34,1.83-1.66,1.61-1.07-.18-2.25.26-2.68-1.45-1.67-6.65-3.5-13.26-5.35-20.17,4.5.09,8.65.22,12.8.22Z"/>
    </clipPath>
    <clipPath id="clippath-45">
      <path class="cls-42" d="m140.2,48.95c.77-.17,1.44-.41,1.45.86.02,4.31.12,8.62.2,13.11-6.88-1.84-13.51-3.66-20.16-5.35-1.58-.4-1.23-1.44-1.31-2.47-.1-1.17.24-1.78,1.53-2.05,6.11-1.31,12.2-2.72,18.3-4.09Z"/>
    </clipPath>
    <clipPath id="clippath-46">
      <path class="cls-3" d="m132.96,67.4c-.71,2.31-1.4,4.64-2.18,7.26-2.76-3.84-4.33-7.65-5.03-12.34,2.32,1.37,4.36,2.59,6.42,3.78.52.3,1.03.53.8,1.29Z"/>
    </clipPath>
    <clipPath id="clippath-47">
      <path class="cls-18" d="m105.42,39.86c.77-.23.99.28,1.29.8,1.19,2.06,2.41,4.09,3.78,6.42-4.69-.71-8.5-2.28-12.34-5.03,2.63-.79,4.95-1.48,7.26-2.18Z"/>
    </clipPath>
    <linearGradient id="linear-gradient-9" x1="289.93" y1="119.39" x2="289.93" y2="119.39" xlink:href="#linear-gradient-3"/>
    <linearGradient id="linear-gradient-10" x1="307.95" y1="119.39" x2="307.96" y2="119.39" xlink:href="#linear-gradient-3"/>
    <linearGradient id="linear-gradient-11" x1="181.4" y1="115.33" x2="195.76" y2="115.33" xlink:href="#linear-gradient-3"/>
    <linearGradient id="linear-gradient-12" x1="200.87" y1="115.33" x2="215.22" y2="115.33" xlink:href="#linear-gradient-3"/>
    <linearGradient id="linear-gradient-13" x1="220.16" y1="115.33" x2="234.51" y2="115.33" xlink:href="#linear-gradient-3"/>
    <linearGradient id="linear-gradient-14" x1="240.3" y1="115.33" x2="242.84" y2="115.33" xlink:href="#linear-gradient-3"/>
    <linearGradient id="linear-gradient-15" x1="247.95" y1="115.33" x2="265.47" y2="115.33" xlink:href="#linear-gradient-3"/>
    <linearGradient id="linear-gradient-16" x1="270.58" y1="115.33" x2="285.13" y2="115.33" xlink:href="#linear-gradient-3"/>
    <linearGradient id="linear-gradient-17" x1="290.24" y1="115.33" x2="304.59" y2="115.33" xlink:href="#linear-gradient-3"/>
    <linearGradient id="linear-gradient-18" x1="309.7" y1="115.33" x2="324.04" y2="115.33" xlink:href="#linear-gradient-3"/>
    <linearGradient id="linear-gradient-19" x1="334.16" y1="115.33" x2="358.35" y2="115.33" xlink:href="#linear-gradient-3"/>
    <linearGradient id="linear-gradient-20" x1="363.46" y1="115.33" x2="377.8" y2="115.33" xlink:href="#linear-gradient-3"/>
    <linearGradient id="linear-gradient-21" x1="382.91" y1="115.33" x2="397.28" y2="115.33" xlink:href="#linear-gradient-3"/>
    <linearGradient id="linear-gradient-22" x1="402.38" y1="115.33" x2="415.54" y2="115.33" xlink:href="#linear-gradient-3"/>
    <linearGradient id="linear-gradient-23" x1="419.63" y1="115.33" x2="433.99" y2="115.33" xlink:href="#linear-gradient-3"/>
  </defs>
  <g>
    <g>
      <path class="cls-6" d="m92.73,17.33c.16-.49.26-.93.3-1.34l.02-.07h-.01c.1-1.27-.41-2.22-1.65-3.27-4.11-3.48-4-3.54-8.02.3-1.21,1.16-1.66,2.16-1.09,3.9.09.29.19.58.28.87l4.98,18.05,4.57-16.48c.2-.65.41-1.31.62-1.96Z"/>
      <path class="cls-30" d="m43,33.57c-.24-.46-.48-.84-.74-1.16l-.04-.06h0c-.83-.96-1.86-1.28-3.48-1.14-5.37.45-5.33.32-5.46,5.88-.04,1.68.35,2.7,1.99,3.53.27.14.54.28.81.42l16.29,9.24-8.42-14.88c-.32-.61-.63-1.21-.95-1.82Z"/>
      <path class="cls-36" d="m19.2,80.66c-.49-.16-.93-.26-1.34-.3l-.07-.02h0c-1.27-.09-2.22.42-3.27,1.66-3.48,4.11-3.54,4,.3,8.02,1.16,1.21,2.16,1.66,3.9,1.09.29-.09.58-.19.87-.28l18.05-4.98-16.48-4.57c-.65-.2-1.31-.41-1.96-.62Z"/>
      <path class="cls-44" d="m35.18,130.01c-.46.24-.84.48-1.16.74l-.06.04h0c-.97.84-1.28,1.87-1.15,3.49.45,5.37.32,5.33,5.88,5.46,1.68.04,2.7-.35,3.53-1.99.14-.27.28-.54.42-.81l9.24-16.29-14.88,8.42c-.61.32-1.21.63-1.82.95Z"/>
      <path class="cls-17" d="m92.61,153.8c.16.49.26.93.3,1.34l.02.07h-.01c.1,1.27-.41,2.22-1.65,3.27-4.11,3.48-4,3.54-8.02-.3-1.21-1.16-1.66-2.16-1.09-3.9.09-.29.19-.58.28-.87l4.98-18.05,4.57,16.48c.2.65.41,1.31.62,1.96Z"/>
      <path class="cls-10" d="m139.11,130.25c.46.24.84.48,1.16.74l.06.04h0c.97.84,1.28,1.87,1.15,3.49-.45,5.37-.32,5.33-5.88,5.46-1.68.04-2.7-.35-3.53-1.99-.14-.27-.28-.54-.42-.81l-9.24-16.29,14.88,8.42c.61.32,1.21.63,1.82.95Z"/>
      <path class="cls-33" d="m155.26,80.31c.49-.16.93-.26,1.34-.3l.07-.02h0c1.27-.09,2.22.42,3.27,1.66,3.48,4.11,3.54,4-.3,8.02-1.16,1.21-2.16,1.66-3.9,1.09-.29-.09-.58-.19-.87-.28l-18.05-4.98,16.48-4.57c.65-.2,1.31-.41,1.96-.62Z"/>
      <path class="cls-39" d="m131.71,33.52c.24-.46.48-.84.74-1.16l.04-.06h0c.83-.96,1.86-1.28,3.48-1.14,5.37.45,5.33.32,5.46,5.88.04,1.68-.35,2.7-1.99,3.53-.27.14-.54.28-.81.42l-16.29,9.24,8.42-14.88c.32-.61.63-1.21.95-1.82Z"/>
    </g>
    <g>
      <path class="cls-48" d="m101.15,22.05c-.93-.92-1.29-.78-1.94.28-3.24,5.33-6.55,10.62-9.85,15.91-.5.81-1.06,1.53.03,2.31.88.63,1.41,1.77,2.92.87,5.88-3.52,11.85-6.9,18.05-10.48-3.25-3.12-6.27-5.96-9.21-8.89Z"/>
      <path class="cls-48" d="m75.81,22.23c-.42-.67-.73-1.31-1.63-.42-3.06,3.03-6.18,6.01-9.41,9.13,6.17,3.57,12.14,6.96,18.04,10.48,1.4.83,1.88-.15,2.67-.82.9-.76,1.08-1.43.37-2.53-3.4-5.24-6.71-10.55-10.04-15.83Z"/>
      <path class="cls-48" d="m52.29,30.96c-1.31,0-1.47.36-1.17,1.57,1.48,6.06,2.88,12.14,4.29,18.22.21.93.34,1.83,1.66,1.61,1.07-.18,2.25.26,2.68-1.45,1.67-6.65,3.5-13.26,5.35-20.17-4.5.09-8.65.22-12.8.22Z"/>
      <path class="cls-48" d="m34.5,49c-.77-.17-1.44-.41-1.45.86-.02,4.31-.12,8.62-.2,13.11,6.88-1.84,13.51-3.66,20.16-5.35,1.58-.4,1.23-1.44,1.31-2.47.1-1.17-.24-1.78-1.53-2.05-6.11-1.31-12.2-2.72-18.3-4.09Z"/>
      <path class="cls-48" d="m69.29,39.91c-.77-.23-.99.28-1.29.8-1.19,2.06-2.41,4.09-3.78,6.42,4.69-.71,8.5-2.28,12.34-5.03-2.63-.79-4.95-1.48-7.26-2.18Z"/>
      <path class="cls-48" d="m23.93,72.25c-.92.93-.78,1.29.28,1.94,5.33,3.24,10.62,6.55,15.91,9.85.81.5,1.53,1.06,2.31-.03.63-.88,1.77-1.41.87-2.92-3.52-5.88-6.9-11.85-10.48-18.05-3.12,3.25-5.96,6.27-8.89,9.21Z"/>
      <path class="cls-48" d="m24.11,97.58c-.67.42-1.31.73-.42,1.63,3.03,3.06,6.01,6.18,9.13,9.41,3.57-6.17,6.96-12.14,10.48-18.04.83-1.4-.15-1.88-.82-2.67-.76-.9-1.43-1.08-2.53-.37-5.24,3.4-10.55,6.71-15.83,10.04Z"/>
      <path class="cls-48" d="m42.28,66.56c-.71.38-.51.9-.35,1.48.61,2.29,1.19,4.6,1.86,7.21,2.81-3.81,4.4-7.62,5.17-12.28-2.42,1.3-4.54,2.45-6.68,3.59Z"/>
      <path class="cls-48" d="m32.57,120.71c0,1.31.36,1.47,1.57,1.17,6.06-1.48,12.14-2.88,18.22-4.29.93-.21,1.83-.34,1.61-1.66-.18-1.07.26-2.25-1.45-2.68-6.65-1.67-13.26-3.5-20.17-5.35.09,4.5.22,8.65.22,12.8Z"/>
      <path class="cls-48" d="m50.62,138.5c-.17.77-.41,1.44.86,1.45,4.31.02,8.62.12,13.11.2-1.84-6.88-3.66-13.51-5.35-20.16-.4-1.58-1.44-1.23-2.47-1.31-1.17-.1-1.78.24-2.05,1.53-1.31,6.11-2.72,12.2-4.09,18.3Z"/>
      <path class="cls-48" d="m41.53,103.72c-.23.77.28.99.8,1.29,2.06,1.19,4.09,2.41,6.42,3.78-.71-4.69-2.28-8.5-5.03-12.34-.79,2.63-1.48,4.95-2.18,7.26Z"/>
      <path class="cls-48" d="m101.03,149.07c-.93.92-1.29.78-1.94-.28-3.24-5.33-6.55-10.62-9.85-15.91-.5-.81-1.06-1.53.03-2.31.88-.63,1.41-1.77,2.92-.87,5.88,3.52,11.85,6.9,18.05,10.48-3.25,3.12-6.27,5.96-9.21,8.89Z"/>
      <path class="cls-48" d="m75.7,148.89c-.42.67-.73,1.31-1.63.42-3.06-3.03-6.18-6.01-9.41-9.13,6.17-3.57,12.14-6.96,18.04-10.48,1.4-.83,1.88.15,2.67.82.9.76,1.08,1.43.37,2.53-3.4,5.24-6.71,10.55-10.04,15.83Z"/>
      <path class="cls-48" d="m67.77,130.72c-1.14-2.14-2.29-4.26-3.59-6.68,4.66.77,8.47,2.35,12.28,5.17-2.61.67-4.92,1.25-7.21,1.86-.58.16-1.1.36-1.48-.35Z"/>
      <path class="cls-48" d="m141.72,120.96c0,1.31-.36,1.47-1.57,1.17-6.06-1.48-12.14-2.88-18.22-4.29-.93-.21-1.83-.34-1.61-1.66.18-1.07-.26-2.25,1.45-2.68,6.65-1.67,13.26-3.5,20.17-5.35-.09,4.5-.22,8.65-.22,12.8Z"/>
      <path class="cls-48" d="m123.67,138.75c.17.77.41,1.44-.86,1.45-4.31.02-8.62.12-13.11.2,1.84-6.88,3.66-13.51,5.35-20.16.4-1.58,1.44-1.23,2.47-1.31,1.17-.1,1.78.24,2.05,1.53,1.31,6.11,2.72,12.2,4.09,18.3Z"/>
      <path class="cls-48" d="m105.22,131.5c-2.31-.71-4.64-1.4-7.26-2.18,3.84-2.76,7.65-4.33,12.34-5.03-1.37,2.32-2.59,4.36-3.78,6.42-.3.52-.53,1.03-1.29.8Z"/>
      <path class="cls-48" d="m150.53,71.89c.92.93.78,1.29-.28,1.94-5.33,3.24-10.62,6.55-15.91,9.85-.81.5-1.53,1.06-2.31-.03-.63-.88-1.77-1.41-.87-2.92,3.52-5.88,6.9-11.85,10.48-18.05,3.12,3.25,5.96,6.27,8.89,9.21Z"/>
      <path class="cls-48" d="m150.35,97.22c.67.42,1.31.73.42,1.63-3.03,3.06-6.01,6.18-9.13,9.41-3.57-6.17-6.96-12.14-10.48-18.04-.83-1.4.15-1.88.82-2.67.76-.9,1.43-1.08,2.53-.37,5.24,3.4,10.55,6.71,15.83,10.04Z"/>
      <path class="cls-48" d="m132.18,105.15c-2.14,1.14-4.26,2.29-6.68,3.59.77-4.66,2.35-8.47,5.17-12.28.67,2.61,1.25,4.92,1.86,7.21.16.58.36,1.1-.35,1.48Z"/>
      <path class="cls-48" d="m122.41,30.91c1.31,0,1.47.36,1.17,1.57-1.48,6.06-2.88,12.14-4.29,18.22-.21.93-.34,1.83-1.66,1.61-1.07-.18-2.25.26-2.68-1.45-1.67-6.65-3.5-13.26-5.35-20.17,4.5.09,8.65.22,12.8.22Z"/>
      <path class="cls-48" d="m140.2,48.95c.77-.17,1.44-.41,1.45.86.02,4.31.12,8.62.2,13.11-6.88-1.84-13.51-3.66-20.16-5.35-1.58-.4-1.23-1.44-1.31-2.47-.1-1.17.24-1.78,1.53-2.05,6.11-1.31,12.2-2.72,18.3-4.09Z"/>
      <path class="cls-48" d="m132.96,67.4c-.71,2.31-1.4,4.64-2.18,7.26-2.76-3.84-4.33-7.65-5.03-12.34,2.32,1.37,4.36,2.59,6.42,3.78.52.3,1.03.53.8,1.29Z"/>
      <path class="cls-48" d="m105.42,39.86c.77-.23.99.28,1.29.8,1.19,2.06,2.41,4.09,3.78,6.42-4.69-.71-8.5-2.28-12.34-5.03,2.63-.79,4.95-1.48,7.26-2.18Z"/>
      <g class="cls-49">
        <circle class="cls-27" cx="86.18" cy="87.1" r="95.23"/>
      </g>
    </g>
  </g>
  <path class="cls-37" d="m289.93,119.41s0,0,0,0c0,0,0-.02,0-.03v.03Z"/>
  <path class="cls-43" d="m307.95,119.41s0,0,0,0c0,0,0-.02,0-.03v.03Z"/>
  <g>
    <path class="cls-14" d="m193.08,114.71c1.17-1.13,1.75-2.51,1.75-4.14v-.59c0-1.98-.7-3.67-2.11-5.08-1.4-1.4-3.09-2.11-5.06-2.11h-3.85c-.67,0-1.23.23-1.7.7-.47.48-.71,1.04-.71,1.7v20.3c0,.66.24,1.22.71,1.68.48.48,1.04.71,1.7.71h4.77c1.98,0,3.67-.7,5.08-2.11,1.4-1.4,2.11-3.1,2.11-5.08v-1.12c0-2.11-.89-3.73-2.68-4.87Zm-9.12-9.39h3.7c1.27,0,2.35.46,3.26,1.37.91.91,1.36,2,1.36,3.28v.59c0,.89-.32,1.66-.95,2.29-.62.62-1.38.93-2.28.93h-5.09v-8.47Zm9.25,15.38c0,1.28-.45,2.37-1.36,3.28-.91.91-2,1.36-3.28,1.36h-4.62v-8.98h6.03c.88,0,1.64.32,2.27.95.63.63.95,1.39.95,2.27v1.12Z"/>
    <path class="cls-1" d="m214.74,102.77h-1.61c-.32,0-.48.16-.48.48v17.45c0,1.28-.45,2.37-1.34,3.28-.91.91-1.99,1.36-3.26,1.36s-2.37-.45-3.28-1.36c-.91-.9-1.36-2-1.36-3.28v-17.45c0-.32-.15-.48-.46-.48h-1.63c-.31,0-.46.16-.46.48v17.45c0,1.99.7,3.68,2.11,5.08,1.39,1.4,3.08,2.11,5.08,2.11s3.66-.7,5.06-2.11c1.4-1.4,2.11-3.1,2.11-5.08v-17.45c0-.32-.16-.48-.48-.48Z"/>
    <path class="cls-20" d="m227.35,102.77c-1.98,0-3.67.7-5.08,2.11-1.4,1.4-2.11,3.1-2.11,5.09v.85c0,1.6.57,2.96,1.7,4.09,1.13,1.13,2.5,1.7,4.09,1.7h2.77c.89,0,1.66.32,2.29.95.63.63.95,1.4.95,2.29v.85c0,1.28-.45,2.37-1.36,3.28-.91.91-1.99,1.36-3.26,1.36s-2.37-.45-3.28-1.36c-.91-.9-1.36-2-1.36-3.28v.03c0-.32-.15-.48-.46-.48h-1.63c-.3,0-.45.16-.46.47,0,1.97.71,3.65,2.1,5.05,1.4,1.4,3.1,2.11,5.08,2.11s3.66-.7,5.06-2.11c1.4-1.4,2.11-3.1,2.11-5.08v-.85c0-1.6-.57-2.96-1.7-4.09-1.12-1.13-2.48-1.7-4.09-1.7h-2.77c-.89,0-1.66-.32-2.29-.95-.63-.63-.95-1.4-.95-2.29v-.85c0-1.29.45-2.39,1.36-3.29.91-.89,2-1.34,3.28-1.34s2.35.45,3.26,1.34c.91.92,1.36,2.01,1.36,3.29v.02c0,.31.15.46.46.46h1.63c.31,0,.46-.15.46-.46v-.02c0-1.98-.7-3.68-2.11-5.09-1.4-1.4-3.09-2.11-5.06-2.11Z"/>
    <path class="cls-29" d="m242.4,102.79h-1.65c-.31,0-.46.15-.46.46v24.17c0,.31.15.46.46.46h1.65c.29,0,.44-.15.44-.46v-24.17c0-.31-.15-.46-.44-.46Z"/>
    <path class="cls-13" d="m265,102.77h-1.61c-.32,0-.48.16-.48.48v19.13l-12.61-19.03c-.26-.38-.59-.58-1-.58-.14,0-.28.02-.44.07-.6.18-.9.58-.9,1.21v23.38c0,.31.16.46.48.46h1.61c.31,0,.46-.15.46-.46v-19.13l12.63,19.03c.25.37.6.56,1.05.56.14,0,.26-.02.37-.05.61-.18.92-.59.92-1.22v-23.36c0-.32-.16-.48-.48-.48Z"/>
    <path class="cls-23" d="m284.66,125.33h-11.51v-9h9.98c.29,0,.44-.15.44-.46v-1.63c0-.31-.15-.46-.44-.46h-9.98v-8.45h11.14c.31,0,.46-.16.46-.48v-1.61c0-.32-.15-.48-.46-.48h-11.31c-.66,0-1.22.24-1.68.71-.47.46-.71,1.03-.71,1.7v20.3c0,.66.24,1.22.71,1.7.46.46,1.02.7,1.68.7h11.68c.32,0,.48-.15.48-.46v-1.63c0-.31-.16-.46-.48-.46Z"/>
    <path class="cls-2" d="m297.42,102.77c-1.98,0-3.67.7-5.08,2.11-1.4,1.4-2.11,3.1-2.11,5.09v.85c0,1.6.57,2.96,1.7,4.09,1.13,1.13,2.5,1.7,4.09,1.7h2.77c.89,0,1.66.32,2.29.95s.95,1.4.95,2.29v.85c0,1.28-.45,2.37-1.36,3.28-.9.91-1.99,1.36-3.26,1.36s-2.37-.45-3.28-1.36-1.36-2-1.36-3.28v.03c0-.32-.15-.48-.46-.48h-1.63c-.3,0-.46.16-.46.47,0,1.97.71,3.65,2.1,5.05,1.4,1.4,3.09,2.11,5.08,2.11s3.66-.7,5.06-2.11,2.11-3.1,2.11-5.08v-.85c0-1.6-.57-2.96-1.7-4.09-1.12-1.13-2.48-1.7-4.09-1.7h-2.77c-.89,0-1.66-.32-2.29-.95s-.95-1.4-.95-2.29v-.85c0-1.29.45-2.39,1.36-3.29.91-.89,2-1.34,3.28-1.34s2.35.45,3.26,1.34c.91.92,1.36,2.01,1.36,3.29v.02c0,.31.15.46.46.46h1.63c.31,0,.46-.15.46-.46v-.02c0-1.98-.7-3.68-2.11-5.09-1.4-1.4-3.09-2.11-5.06-2.11Z"/>
    <path class="cls-40" d="m316.88,102.77c-1.98,0-3.67.7-5.08,2.11s-2.11,3.1-2.11,5.09v.85c0,1.6.57,2.96,1.7,4.09,1.13,1.13,2.5,1.7,4.09,1.7h2.77c.89,0,1.66.32,2.29.95s.95,1.4.95,2.29v.85c0,1.28-.45,2.37-1.36,3.28-.9.91-1.99,1.36-3.26,1.36s-2.37-.45-3.28-1.36-1.36-2-1.36-3.28v.03c0-.32-.15-.48-.46-.48h-1.63c-.3,0-.46.16-.46.47,0,1.97.71,3.65,2.1,5.05,1.4,1.4,3.09,2.11,5.08,2.11s3.66-.7,5.06-2.11,2.11-3.1,2.11-5.08v-.85c0-1.6-.57-2.96-1.7-4.09-1.12-1.13-2.48-1.7-4.09-1.7h-2.77c-.89,0-1.66-.32-2.29-.95s-.95-1.4-.95-2.29v-.85c0-1.29.45-2.39,1.36-3.29.91-.89,2-1.34,3.28-1.34s2.35.45,3.26,1.34c.91.92,1.36,2.01,1.36,3.29v.02c0,.31.15.46.46.46h1.63c.31,0,.46-.15.46-.46v-.02c0-1.98-.7-3.68-2.11-5.09-1.4-1.4-3.09-2.11-5.06-2.11Z"/>
    <path class="cls-5" d="m357.89,102.77h-1.61c-.32,0-.48.16-.48.48v17.94c0,1.14-.41,2.12-1.22,2.92-.8.81-1.77,1.22-2.9,1.22-2.76,0-4.14-.93-4.14-2.78v-19.3c0-.32-.16-.48-.48-.48h-1.61c-.31,0-.46.16-.46.48v19.3c0,1.86-1.39,2.78-4.16,2.78-1.13,0-2.1-.41-2.9-1.22-.81-.8-1.22-1.78-1.22-2.92v-17.94c0-.32-.15-.48-.46-.48h-1.63c-.31,0-.46.16-.46.48v17.94c0,1.85.65,3.42,1.95,4.72,1.31,1.31,2.89,1.97,4.72,1.97,2.43,0,4.24-.63,5.43-1.88,1.18,1.26,2.98,1.88,5.41,1.88,1.83,0,3.41-.66,4.72-1.97,1.3-1.3,1.95-2.87,1.95-4.72v-17.94c0-.32-.15-.48-.46-.48Z"/>
    <path class="cls-28" d="m370.64,102.77c-1.98,0-3.67.7-5.08,2.11-1.4,1.4-2.11,3.1-2.11,5.08v10.75c0,1.98.7,3.67,2.11,5.08,1.4,1.4,3.09,2.11,5.08,2.11s3.67-.7,5.06-2.11c1.4-1.4,2.11-3.1,2.11-5.08v-10.75c0-1.98-.7-3.67-2.11-5.08-1.39-1.4-3.08-2.11-5.06-2.11Zm4.6,17.93c0,1.28-.45,2.37-1.34,3.28-.89.91-1.98,1.36-3.26,1.36s-2.37-.45-3.28-1.36c-.89-.9-1.34-2-1.34-3.28v-10.75c0-1.28.45-2.37,1.34-3.28.91-.89,2-1.34,3.28-1.34s2.37.45,3.26,1.34c.89.91,1.34,2,1.34,3.28v10.75Z"/>
    <path class="cls-9" d="m390.96,102.84v-.05h-5.65c-.66,0-1.22.23-1.7.7-.46.46-.7,1.03-.7,1.7v22.24c0,.31.15.46.46.46h1.63c.31,0,.46-.15.46-.46v-9.71h6.01c.89,0,1.66.32,2.29.95s.95,1.4.95,2.29v6.47c0,.31.15.46.46.46h1.63c.32,0,.47-.15.47-.46v-6.47c0-1.82-.73-3.33-2.19-4.52,1.46-1.17,2.19-2.67,2.19-4.5v-1.99c0-1.81-.61-3.4-1.83-4.77-1.2-1.35-2.69-2.13-4.48-2.34Zm3.75,9.1c0,.88-.32,1.64-.95,2.28-.63.63-1.4.95-2.29.95h-6.01v-9.85h4.63c1.27,0,2.35.46,3.26,1.37.91.91,1.36,1.99,1.36,3.26v1.99Z"/>
    <path class="cls-25" d="m415.08,125.33h-10.14v-22.09c0-.31-.16-.46-.48-.46h-1.63c-.31,0-.46.15-.46.46v22.24c0,.66.23,1.22.7,1.7.48.46,1.04.7,1.7.7h10.3c.31,0,.46-.15.46-.46v-1.63c0-.31-.15-.46-.46-.46Z"/>
    <path class="cls-21" d="m432.18,105.18c-1.21-1.35-2.7-2.13-4.48-2.34v-.07h-5.65c-.66,0-1.22.24-1.7.71-.48.46-.71,1.03-.71,1.7v20.3c0,.66.24,1.22.71,1.7.48.46,1.04.7,1.7.7h4.77c1.98,0,3.67-.7,5.08-2.11,1.4-1.4,2.11-3.1,2.11-5.08v-10.75c0-1.82-.61-3.41-1.82-4.77Zm-.73,15.52c0,1.28-.45,2.37-1.36,3.28-.9.91-2,1.36-3.28,1.36h-4.62v-20h4.62c1.28,0,2.37.45,3.28,1.34.91.91,1.36,2,1.36,3.28v10.75Z"/>
  </g>
  <g>
    <path class="cls-27" d="m206.48,49.9v27.19c0,3.44-2.61,6.48-6.36,7.66-1.07.34-2.23.52-3.45.52s-2.37-.19-3.44-.52c-1.3-.41-2.46-1.05-3.42-1.85h0c-.51-.49-2.51-2.51-2.94-5.64,0-.06,0-.12,0-.17v-2.52c.18-1.37.72-3.21,2.31-4.59.01-.01.03-.02.04-.03,1.71-1.47,2.3-3.86,1.31-5.88l-.1-.21c-7.56,2.26-8.54,8.79-8.33,12.99,0,.03-.01.05-.01.08,0,.05,0,.12,0,.17,0,.1,0,.19,0,.3.03,1.05.22,2.11.54,3.15,0,.02,0,.03,0,.03h0c1.28,4.03,4.73,7.67,9.82,8.98,1.3.34,2.71.52,4.22.52s2.92-.19,4.24-.54h0c.54-.13,1.06-.3,1.56-.5,5.47-2.07,8.79-6.99,8.79-11.94v-30.95h-1.03c-2.18,0-3.77,1.58-3.77,3.76Z"/>
    <path class="cls-27" d="m272.02,66.16c0-3.47,2.62-6.23,5.75-6.23s5.72,2.77,5.72,6.23v2.18h1.03c2.18,0,3.76-.92,3.76-2.18,0-2.84-1.14-5.75-3.02-7.75-1.88-1.99-4.76-3.28-7.49-3.28s-5.64,1.29-7.52,3.28c-1.88,1.99-3.02,4.91-3.02,7.75v10.14h-9.78c-.26,0-.48-.22-.48-.48v-9.52c0-2.88-1.11-5.68-3.02-7.71-1.88-2.07-4.79-3.28-7.52-3.28s-5.61,1.22-7.49,3.28c-1.84,1.95-3.02,4.91-3.02,7.71v9.52c0,.26-.22.48-.48.48h-7.3c-1.84,0-3.36-1.51-3.36-3.36v-26.81h-1.03c-2.18,0-3.76,1.59-3.76,3.76v23.05c0,4.43,3.76,8.15,8.15,8.15h7.3c1.29,0,2.51-.52,3.47-1.33,2.21,1.44,4.91,2.25,7.52,2.25s5.35-.81,7.56-2.25c.96.81,2.18,1.33,3.47,1.33h28.22c2.18,0,3.76-1.59,3.76-3.76v-1.03h-17.41v-10.14Zm-19.84,9.37c-1.62,1.29-3.58,1.7-5.75,1.7s-4.09-.41-5.72-1.7v-9.4c0-3.25,2.62-6.01,5.72-6.2,3.14.18,5.75,2.95,5.75,6.2v9.4Z"/>
    <path class="cls-27" d="m307.02,46.14c.66,0,1.14-.48,1.14-1.14v-1.18h-5.5v-1.4c0-1.18.55-1.7,1.29-1.7.66,0,1.29.52,1.29,1.7h.92c.78,0,1.44-.63,1.11-1.36-.55-1.22-1.84-1.96-3.32-1.96-2.03,0-3.43,1.29-3.43,3.32v1.62c-.74.33-1.4,1.29-1.4,2.1h7.89Z"/>
    <path class="cls-27" d="m314.44,49.9v23.09c0,1.84-1.48,3.32-3.36,3.32h-11.47c-.92,0-1.51-.52-1.51-1-3.61,0-3.61,5.79,1.51,5.79h11.47c4.43,0,8.15-3.69,8.15-8.11v-26.85h-1.03c-2.18,0-3.76,1.59-3.76,3.76Z"/>
    <path class="cls-27" d="m301.71,54.81v18.74h4.79v-22.5h-1.03c-2.18,0-3.76,1.59-3.76,3.76Z"/>
    <path class="cls-27" d="m327.94,49.9v31.2h4.79v-34.96h-1.03c-2.18,0-3.76,1.59-3.76,3.76Z"/>
    <path class="cls-27" d="m383.71,49.9v23.05c0,1.85-1.51,3.36-3.36,3.36h-5.61c-.39,0-.76-.06-1.11-.19-1.32-.45-2.25-1.68-2.25-3.13v-7.01c0-2.84-1.14-5.75-3.02-7.74-1.92-2.03-4.8-3.28-7.52-3.28s-5.61,1.26-7.49,3.28c-.05.05-.09.1-.14.16-.08.08-.16.16-.22.25-.78.88-1.43,1.95-1.92,3.1-.58,1.39-.91,2.91-.91,4.39v9.51c0,.12-.05.24-.13.33v.59c-1.43.37-2.82,1.12-3.87,2.14-.61.62-1.13,1.39-1.51,2.21-.04.06-.06.12-.09.19-.48,1.07-.76,2.23-.76,3.35v.55c0,2.18,1.59,3.76,3.77,3.76h1.03v-4.31c0-.92.34-1.7,1-2.36.62-.66,1.4-.99,2.36-.99h11.28c2.47,0,4.76-1.19,6.27-2.99.91,1.39,2.25,2.41,3.95,2.81.52.12,1.07.19,1.65.19h5.24c4.43,0,8.16-3.73,8.16-8.16v-26.81h-1.04c-2.18,0-3.76,1.59-3.76,3.77Zm-20.47,26.41h-6.65c-.14-.05-.28-.12-.41-.19-.42-.21-.83-.47-1.22-.78v-9.22c0-.87.19-1.7.52-2.46.12-.37.27-.73.47-1.05,1.03-1.63,2.78-2.76,4.72-2.88,3.13.19,5.75,2.96,5.75,6.2v8.05c-.44,1.35-1.7,2.32-3.19,2.32Z"/>
    <path class="cls-27" d="m417.9,76.31v-10.14c0-3.47,2.62-6.23,5.75-6.23s5.72,2.77,5.72,6.23v2.18h1.03c2.18,0,3.76-.92,3.76-2.18,0-2.84-1.14-5.75-3.02-7.75-1.88-1.99-4.76-3.28-7.49-3.28s-5.64,1.29-7.52,3.28c-1.88,1.99-3.02,4.91-3.02,7.75v10.14h-7.75c-1.84,0-3.36-1.51-3.36-3.36v-26.81h-1.03c-2.18,0-3.76,1.59-3.76,3.76v23.05c0,4.43,3.76,8.15,8.15,8.15h26.19c2.18,0,3.76-1.59,3.76-3.76v-1.03h-17.41Z"/>
  </g>
</svg>